<svg xmlns="http://www.w3.org/2000/svg" width="64" height="64" fill="#000" viewBox="0 0 64 64"><path d="M 29 0 A 1 1 0 0 0 28 1 L 28 20.365234 C 26.433 21.158234 22.100563 23.719031 16.476562 30.082031 C 13.030562 30.753031 4.5206894e-16 33.648 0 39 L 0 43 L 0 45 A 3 3 0 0 0 3 48 L 20 48 L 20 46 L 3 46 A 1 1 0 0 1 2 45 L 2 44 L 26 44 L 26 42 L 2 42 L 2 39 C 2 38.981181 2.0090075 38.962185 2.0097656 38.943359 L 18 38 C 18.113876 38 20.582751 37.943532 20.949219 34.013672 A 2.99 2.99 0 0 0 22.121094 33.292969 L 31.658203 23.755859 C 32.187588 23.396793 35 21.371248 35 19 L 35 6 L 46 6 L 46 14 L 48 14 L 48 1 A 1 1 0 0 0 47 0 L 29 0 z M 30 2 L 46 2 L 46 4 L 30 4 L 30 2 z M 30 6 L 33 6 L 33 8 L 30 8 L 30 6 z M 30 10 L 33 10 L 33 12 L 30 12 L 30 10 z M 30 14 L 33 14 L 33 16 L 30 16 L 30 14 z M 43 16 A 1 1 0 0 0 42 17 L 42 36.365234 C 40.433 37.158234 36.100563 39.719031 30.476562 46.082031 C 27.030563 46.753031 14 49.648 14 55 L 14 59 L 14 61 A 3 3 0 0 0 17 64 L 47 64 A 1 1 0 0 0 47.707031 63.707031 A 1.831 1.831 0 0 1 50.292969 63.707031 A 1 1 0 0 0 51 64 L 61 64 A 3 3 0 0 0 64 61 L 64 59 C 64 58.426 63.977 44.952328 62 37.861328 L 62 30 L 60 30 L 60 38 A 0.983 0.983 0 0 0 60.039062 38.275391 C 60.930082 41.394232 61.408547 45.976503 61.673828 50.052734 C 55.581152 50.540014 55.055254 54.449019 55.009766 58 L 16 58 L 16 55 C 16 54.981181 16.009007 54.962185 16.009766 54.943359 L 32 54 C 32.113876 54 34.582751 53.943532 34.949219 50.013672 A 2.99 2.99 0 0 0 36.121094 49.292969 L 45.658203 39.755859 C 46.187588 39.396793 49 37.371248 49 35 L 49 22 L 60 22 L 60 24 L 62 24 L 62 17 A 1 1 0 0 0 61 16 L 43 16 z M 30 18 L 33 18 L 33 19 C 33 19.864236 31.948005 20.963961 31.087891 21.673828 L 30 20.585938 L 30 18 z M 44 18 L 60 18 L 60 20 L 44 20 L 44 18 z M 44 22 L 47 22 L 47 24 L 44 24 L 44 22 z M 28.802734 22.216797 L 29.585938 23 L 29 23.585938 L 28.048828 22.634766 C 28.430989 22.411389 28.587874 22.324458 28.802734 22.216797 z M 26.330078 23.744141 L 27.585938 25 L 26 26.585938 L 24.513672 25.099609 C 25.183285 24.565345 25.782979 24.12572 26.330078 23.744141 z M 44 26 L 47 26 L 47 28 L 44 28 L 44 26 z M 60 26 L 60 28 L 62 28 L 62 26 L 60 26 z M 22.984375 26.398438 L 24.585938 28 L 23 29.585938 L 21.335938 27.921875 C 21.908573 27.37272 22.460071 26.857709 22.984375 26.398438 z M 19.908203 29.322266 L 21.585938 31 L 20.707031 31.878906 A 1 1 0 0 1 19.292969 31.878906 L 18.378906 30.964844 C 18.901086 30.385302 19.412012 29.834385 19.908203 29.322266 z M 44 30 L 47 30 L 47 32 L 44 32 L 44 30 z M 16.675781 32.089844 L 17.878906 33.292969 A 2.99 2.99 0 0 0 18.943359 33.974609 C 18.777153 35.457678 18.250034 35.96069 17.941406 36 L 3.4980469 36.849609 C 6.1992805 34.825032 12.024662 33.011594 16.675781 32.089844 z M 44 34 L 47 34 L 47 35 C 47 35.864236 45.948005 36.963961 45.087891 37.673828 L 44 36.585938 L 44 34 z M 42.802734 38.216797 L 43.585938 39 L 43 39.585938 L 42.048828 38.634766 C 42.430989 38.411389 42.587874 38.324458 42.802734 38.216797 z M 40.330078 39.744141 L 41.585938 41 L 40 42.585938 L 38.513672 41.099609 C 39.183285 40.565345 39.782979 40.12572 40.330078 39.744141 z M 28 42 L 28 44 L 30 44 L 30 42 L 28 42 z M 36.984375 42.398438 L 38.585938 44 L 37 45.585938 L 35.335938 43.921875 C 35.908573 43.37272 36.460071 42.857709 36.984375 42.398438 z M 33.908203 45.322266 L 35.585938 47 L 34.707031 47.878906 A 1 1 0 0 1 33.292969 47.878906 L 32.378906 46.964844 C 32.901086 46.385302 33.412012 45.834385 33.908203 45.322266 z M 30.675781 48.089844 L 31.878906 49.292969 A 2.99 2.99 0 0 0 32.943359 49.974609 C 32.777153 51.457678 32.250034 51.96069 31.941406 52 L 17.498047 52.849609 C 20.199281 50.825032 26.024662 49.011594 30.675781 48.089844 z M 61.792969 52.048828 C 61.92389 54.608168 61.973525 56.798006 61.990234 58 L 57.007812 58 C 57.044507 54.750612 57.447945 52.400122 61.792969 52.048828 z M 16 60 L 62 60 L 62 61 A 1 1 0 0 1 61 62 L 51.378906 62 A 3.834 3.834 0 0 0 46.621094 62 L 17 62 A 1 1 0 0 1 16 61 L 16 60 z"/></svg>