<svg xmlns="http://www.w3.org/2000/svg" width="64" height="64" fill="#000" viewBox="0 0 64 64"><path d="M 32 0 C 23.975418 -1.2492132e-15 20.438602 4.442703 19.439453 6 L 15 6 A 1 1 0 0 0 14.292969 6.2929688 L 10.292969 10.292969 A 1 1 0 0 0 10 11 L 10 23 A 5.006 5.006 0 0 0 12 26.990234 L 12 36 L 7 36 A 7.008 7.008 0 0 0 0 43 L 0 47 A 1 1 0 0 0 1 48 L 1 51 A 1 1 0 0 0 2 52 L 4 52 L 4 59 A 1 1 0 0 0 4.2929688 59.707031 L 6.2929688 61.707031 A 1 1 0 0 0 7 62 L 12 62 L 12 63 A 1 1 0 0 0 13 64 L 51 64 A 1 1 0 0 0 52 63 L 52 62 L 57 62 A 1 1 0 0 0 57.707031 61.707031 L 59.707031 59.707031 A 1 1 0 0 0 60 59 L 60 52 L 62 52 A 1 1 0 0 0 63 51 L 63 48 A 1 1 0 0 0 64 47 L 64 43 A 7.008 7.008 0 0 0 57 36 L 52 36 L 52 26.992188 A 5.006 5.006 0 0 0 54 23 L 54 11 A 1 1 0 0 0 53.707031 10.292969 L 49.707031 6.2929688 A 1 1 0 0 0 49 6 L 44.5625 6 C 43.559561 4.4406894 40.023059 0 32 0 z M 32 2 C 37.575322 2 40.60356 4.3828398 42.037109 6 L 39.462891 6 C 38.698186 5.1088679 36.45163 3 32 3 C 27.54837 3 25.301814 5.1088679 24.537109 6 L 21.962891 6 C 23.39644 4.3828398 26.424678 2 32 2 z M 32 5 C 33.890099 5 35.262752 5.4677917 36.246094 6 L 27.753906 6 C 28.737514 5.4674893 30.110662 5 32 5 z M 16 8 L 18 8 L 18 21 L 17 21 A 1 1 0 0 1 16 20 L 16 8 z M 20 8 L 22 8 L 22 23 L 20 23 L 20 8 z M 24 8 L 40 8 L 40 21 L 24 21 L 24 8 z M 42 8 L 44 8 L 44 23 L 42 23 L 42 8 z M 46 8 L 48 8 L 48 20 A 1 1 0 0 1 47 21 L 46 21 L 46 8 z M 14 9.4140625 L 14 20 A 3 3 0 0 0 17 23 L 18 23 A 1 1 0 0 0 17 24 L 17 26 L 15 26 A 3 3 0 0 1 12 23 L 12 11.414062 L 14 9.4140625 z M 50 9.4140625 L 52 11.414062 L 52 23 A 3 3 0 0 1 49 26 L 47 26 L 47 24 A 1 1 0 0 0 46 23 L 47 23 A 3 3 0 0 0 50 20 L 50 9.4140625 z M 24 23 L 40 23 A 1 1 0 0 0 39 24 L 39 26 L 25 26 L 25 24 A 1 1 0 0 0 24 23 z M 19 25 L 20 25 L 20 28 L 22 28 L 22 25 L 23 25 L 23 29 L 19 29 L 19 25 z M 41 25 L 42 25 L 42 28 L 44 28 L 44 25 L 45 25 L 45 29 L 41 29 L 41 25 z M 50 27.892578 L 50 62 L 48 62 L 48 46 A 3 3 0 0 0 45 43 L 19 43 A 3 3 0 0 0 16 46 L 16 62 L 14 62 L 14 27.896484 A 5.006 5.006 0 0 0 15 28 L 17 28 L 17 30 A 1 1 0 0 0 18 31 L 18 38 A 1 1 0 0 0 18.292969 38.707031 L 20.292969 40.707031 A 1 1 0 0 0 21 41 A 1 1 0 0 0 21.707031 40.707031 L 23.707031 38.707031 A 1 1 0 0 0 24 38 L 24 31 A 1 1 0 0 0 25 30 L 25 28 L 39 28 L 39 30 A 1 1 0 0 0 40 31 L 40 38 A 1 1 0 0 0 40.292969 38.707031 L 42.292969 40.707031 A 1 1 0 0 0 43 41 A 1 1 0 0 0 43.707031 40.707031 L 45.707031 38.707031 A 1 1 0 0 0 46 38 L 46 31 A 1 1 0 0 0 47 30 L 47 28 L 49 28 A 5.006 5.006 0 0 0 50 27.892578 z M 20 31 L 22 31 L 22 37.585938 L 21 38.585938 L 20 37.585938 L 20 31 z M 42 31 L 44 31 L 44 37.585938 L 43 38.585938 L 42 37.585938 L 42 31 z M 7 38 L 12 38 L 12 40 L 7 40 A 3 3 0 0 0 4 43 L 4 46 L 2 46 L 2 43 A 5.006 5.006 0 0 1 7 38 z M 52 38 L 57 38 A 5.006 5.006 0 0 1 62 43 L 62 46 L 60 46 L 60 43 A 3 3 0 0 0 57 40 L 52 40 L 52 38 z M 7 42 L 12 42 L 12 54 L 6 54 L 6 43 A 1 1 0 0 1 7 42 z M 52 42 L 57 42 A 1 1 0 0 1 58 43 L 58 54 L 52 54 L 52 42 z M 19 45 L 45 45 A 1 1 0 0 1 46 46 L 46 50.585938 L 43.585938 53 L 20.414062 53 L 18 50.585938 L 18 46 A 1 1 0 0 1 19 45 z M 20 47 L 20 49 L 22 49 L 22 47 L 20 47 z M 24 47 L 24 49 L 44 49 L 44 47 L 24 47 z M 3 48 L 4 48 L 4 50 L 3 50 L 3 48 z M 60 48 L 61 48 L 61 50 L 60 50 L 60 48 z M 18 53.414062 L 19.292969 54.707031 A 1 1 0 0 0 20 55 L 27 55 L 27 58 A 1 1 0 0 0 28 59 L 36 59 A 1 1 0 0 0 37 58 L 37 55 L 44 55 A 1 1 0 0 0 44.707031 54.707031 L 46 53.414062 L 46 62 L 18 62 L 18 53.414062 z M 29 55 L 35 55 L 35 57 L 29 57 L 29 55 z M 6 56 L 12 56 L 12 60 L 7.4140625 60 L 6 58.585938 L 6 56 z M 52 56 L 58 56 L 58 58.585938 L 56.585938 60 L 52 60 L 52 56 z"/></svg>